<svg width="138" height="26" viewBox="0 0 138 26" fill="none" xmlns="http://www.w3.org/2000/svg">
<path d="M114.715 25.8689C114.174 25.8689 113.735 25.4301 113.735 24.8889V1.10109C113.735 0.559846 114.174 0.121086 114.715 0.121086H118.731C119.273 0.121086 119.711 0.559847 119.711 1.10109V8.9316C119.711 9.47284 120.15 9.9116 120.691 9.9116H130.62C131.161 9.9116 131.6 9.47284 131.6 8.9316V1.10108C131.6 0.559846 132.039 0.121086 132.58 0.121086H136.596C137.137 0.121086 137.576 0.559847 137.576 1.10109V24.8889C137.576 25.4301 137.137 25.8689 136.596 25.8689H132.58C132.039 25.8689 131.6 25.4301 131.6 24.8889V16.1047C131.6 15.5635 131.161 15.1247 130.62 15.1247H120.691C120.15 15.1247 119.711 15.5635 119.711 16.1047V24.8889C119.711 25.4301 119.273 25.8689 118.731 25.8689H114.715Z" fill="#350174"/>
<path d="M40.4798 25.8789C40.0412 25.8789 39.6561 25.5875 39.5368 25.1655L32.8087 1.3677C32.6319 0.74225 33.1018 0.121086 33.7518 0.121086H38.003C38.4455 0.121086 38.833 0.417587 38.9488 0.844646L42.2617 13.0639C42.5182 14.0098 43.8508 14.0351 44.143 13.0997L47.9823 0.808882C48.1102 0.399704 48.4891 0.121086 48.9178 0.121086H52.5766C52.9995 0.121086 53.3747 0.392349 53.5072 0.793926L57.598 13.188C57.9032 14.1127 59.2241 14.0745 59.4754 13.1338L62.758 0.848113C62.8726 0.419343 63.261 0.121086 63.7048 0.121086H67.985C68.6349 0.121086 69.1048 0.742252 68.928 1.3677L62.2 25.1655C62.0807 25.5875 61.6955 25.8789 61.257 25.8789H56.8297C56.404 25.8789 56.027 25.6041 55.8967 25.1988L51.6446 11.97C51.35 11.0533 50.0484 11.0667 49.7727 11.9892L45.8304 25.1795C45.7064 25.5946 45.3246 25.8789 44.8915 25.8789H40.4798Z" fill="#350174"/>
<path d="M73.6486 25.8789C73.1074 25.8789 72.6686 25.4402 72.6686 24.8989V1.10109C72.6686 0.559848 73.1074 0.121086 73.6486 0.121086H77.667C78.2082 0.121086 78.647 0.559847 78.647 1.10109V19.6838C78.647 20.225 79.0857 20.6637 79.627 20.6637H90.6413C91.1825 20.6637 91.6213 21.1025 91.6213 21.6437V24.8989C91.6213 25.4402 91.1825 25.8789 90.6413 25.8789H73.6486Z" fill="#350174"/>
<path d="M102.294 24.8989C102.294 25.4402 101.855 25.8789 101.314 25.8789H97.4224C96.8812 25.8789 96.4424 25.4402 96.4424 24.8989V6.31625C96.4424 5.77501 96.0037 5.33625 95.4624 5.33625H89.3453C88.8041 5.33625 88.3653 4.89749 88.3653 4.35625V1.10109C88.3653 0.559847 88.8041 0.121086 89.3453 0.121086H109.391C109.932 0.121086 110.371 0.559847 110.371 1.10109V4.35625C110.371 4.89749 109.932 5.33625 109.391 5.33625H103.274C102.732 5.33625 102.294 5.77501 102.294 6.31625V24.8989Z" fill="#350174"/>
<path d="M23.4564 0.121086H12.5464C11.3413 0.121086 10.3644 1.098 10.3644 2.30309V9.50562C10.3644 10.0469 9.92562 10.4856 9.38438 10.4856H2.18186C0.976768 10.4856 -0.000150681 11.4625 -0.000150681 12.6676V23.5777C-0.000150681 24.7827 0.976768 25.7597 2.18186 25.7597H13.0919C14.297 25.7597 15.2739 24.7827 15.2739 23.5777V16.3751C15.2739 15.8339 15.7127 15.3951 16.2539 15.3951H23.4564C24.6615 15.3951 25.6384 14.4182 25.6384 13.2131V2.30309C25.6384 1.098 24.6615 0.121086 23.4564 0.121086Z" fill="#350174"/>
</svg>
